<svg width="363.2px" height="122px" xmlns="http://www.w3.org/2000/svg" viewBox="68.4 14 363.2 122" style="background: rgba(255, 255, 255, 0);" preserveAspectRatio="xMidYMid"><defs><linearGradient id="editing-gradient-gradient" x1="0.03640807271660629" x2="0.9635919272833937" y1="0.312696703292044" y2="0.687303296707956" gradientUnits="objectBoundingBox"><stop offset="0" stop-color="#000000"></stop><stop offset="1" stop-color="#ff7400"></stop></linearGradient></defs><g><g transform="translate(124.14497831463814, 98.68000030517578)"><path d="M0.45-0.32L0.45-0.32L8.51-42.24L8.51-42.24Q16.06-42.88 20.93-42.88L20.93-42.88L20.93-42.88Q25.79-42.88 28.93-42.46L28.93-42.46L28.93-42.46Q32.06-42.05 34.18-40.96L34.18-40.96L34.18-40.96Q38.40-38.91 38.40-33.28L38.40-33.28L38.40-33.28Q38.40-30.02 35.58-27.26L35.58-27.26L35.58-27.26Q32.96-24.77 30.08-24.19L30.08-24.19L30.08-24.19Q33.15-23.68 35.33-21.38L35.33-21.38L35.33-21.38Q37.63-18.94 37.63-15.17L37.63-15.17L37.63-15.17Q37.63-7.87 32.19-3.62L32.19-3.62L32.19-3.62Q26.75 0.64 16.06 0.64L16.06 0.64L16.06 0.64Q8.70 0.64 0.45-0.32ZM17.86-20.61L14.66-4.03L14.66-4.03Q15.23-3.97 15.36-3.97L15.36-3.97L15.94-3.97L15.94-3.97Q21.18-3.97 23.42-7.42L23.42-7.42L23.42-7.42Q25.09-10.11 25.09-15.04L25.09-15.04L25.09-15.04Q25.09-17.66 23.39-19.07L23.39-19.07L23.39-19.07Q21.70-20.48 17.86-20.61L17.86-20.61ZM27.58-33.22L27.58-33.22L27.58-33.22Q27.58-38.53 22.46-38.53L22.46-38.53L21.89-38.53L21.89-38.53Q21.63-38.53 21.25-38.46L21.25-38.46L18.69-24.96L19.33-24.96L19.33-24.96Q27.58-25.15 27.58-33.22ZM44.64-1.92L44.64-1.92L44.64-1.92Q43.14-3.58 42.46-6.21L42.46-6.21L42.46-6.21Q41.79-8.83 41.79-13.12L41.79-13.12L41.79-13.12Q41.79-17.41 43.26-21.31L43.26-21.31L43.26-21.31Q44.74-25.22 47.42-28.03L47.42-28.03L47.42-28.03Q52.93-33.92 62.02-33.92L62.02-33.92L62.02-33.92Q65.28-33.92 67.65-32.83L67.65-32.83L78.59-33.92L73.86-8.96L73.86-8.96Q73.66-8.19 73.66-6.78L73.66-6.78L73.66-6.78Q73.66-5.38 74.53-4.48L74.53-4.48L74.53-4.48Q75.39-3.58 76.67-3.46L76.67-3.46L76.67-3.46Q76.03-1.28 73.70 0L73.70 0L73.70 0Q71.36 1.28 68.74 1.28L68.74 1.28L68.74 1.28Q66.11 1.28 64.35 0.29L64.35 0.29L64.35 0.29Q62.59-0.70 62.08-2.37L62.08-2.37L62.08-2.37Q61.06-0.77 58.88 0.26L58.88 0.26L58.88 0.26Q56.70 1.28 53.79 1.28L53.79 1.28L53.79 1.28Q50.88 1.28 48.51 0.51L48.51 0.51L48.51 0.51Q46.14-0.26 44.64-1.92ZM58.14-27.90L58.14-27.90L58.14-27.90Q57.41-26.75 56.77-24.80L56.77-24.80L56.77-24.80Q56.13-22.85 55.07-17.63L55.07-17.63L55.07-17.63Q54.02-12.42 54.02-8.70L54.02-8.70L54.02-8.70Q54.02-4.99 54.59-3.90L54.59-3.90L54.59-3.90Q55.17-2.82 56.19-2.82L56.19-2.82L56.19-2.82Q58.24-2.82 59.74-4.77L59.74-4.77L59.74-4.77Q61.25-6.72 61.82-10.18L61.82-10.18L65.22-28.93L65.22-28.93Q63.87-30.08 62.30-30.08L62.30-30.08L62.30-30.08Q60.74-30.08 59.81-29.57L59.81-29.57L59.81-29.57Q58.88-29.06 58.14-27.90ZM109.12 1.28L109.12 1.28L109.12 1.28Q101.38 1.28 101.38-4.74L101.38-4.74L101.38-4.74Q101.44-6.40 101.95-9.22L101.95-9.22L103.10-15.10L103.10-15.10Q104.83-23.42 104.83-25.28L104.83-25.28L104.83-25.28Q104.83-28.99 102.66-28.99L102.66-28.99L102.66-28.99Q99.01-28.99 97.09-19.46L97.09-19.46L93.31 0L80.45 1.28L87.10-32.70L97.60-33.92L96.58-27.65L96.58-27.65Q99.58-33.92 108.80-33.92L108.80-33.92L108.80-33.92Q113.28-33.92 115.17-32.03L115.17-32.03L115.17-32.03Q117.06-30.14 117.06-25.92L117.06-25.92L117.06-25.92Q117.06-21.95 115.01-12.67L115.01-12.67L115.01-12.67Q114.05-8.51 114.05-6.94L114.05-6.94L114.05-6.94Q114.05-5.38 114.91-4.48L114.91-4.48L114.91-4.48Q115.78-3.58 117.06-3.46L117.06-3.46L117.06-3.46Q116.42-1.28 114.21 0L114.21 0L114.21 0Q112 1.28 109.12 1.28ZM138.69-30.34L138.69-30.34L138.69-30.34Q142.14-33.92 149.44-33.92L149.44-33.92L149.44-33.92Q153.47-33.92 155.68-31.78L155.68-31.78L155.68-31.78Q157.89-29.63 157.89-25.70L157.89-25.70L157.89-25.70Q157.89-21.76 155.68-18.98L155.68-18.98L155.68-18.98Q153.47-16.19 149.38-15.04L149.38-15.04L149.38-15.04Q149.70-13.76 150.14-12.42L150.14-12.42L151.04-9.86L151.04-9.86Q152.26-6.59 153.22-5.44L153.22-5.44L153.22-5.44Q154.18-4.29 155.46-3.90L155.46-3.90L155.46-3.90Q154.75-1.28 152.19 0.13L152.19 0.13L152.19 0.13Q150.14 1.28 147.33 1.28L147.33 1.28L147.33 1.28Q139.07 1.28 137.98-11.46L137.98-11.46L137.98-11.46Q137.79-13.25 137.79-15.04L137.79-15.04L137.79-15.04Q140.99-15.94 143.23-18.94L143.23-18.94L143.23-18.94Q145.47-21.95 145.47-25.47L145.47-25.47L145.47-25.47Q145.47-28.99 142.98-28.99L142.98-28.99L142.98-28.99Q141.18-28.99 139.78-27.01L139.78-27.01L139.78-27.01Q138.37-25.02 137.73-21.63L137.73-21.63L133.50 0L120.58 1.28L129.54-44.80L142.40-46.08L140.93-38.46L140.93-38.46Q139.97-33.09 138.69-30.34ZM174.78 1.28L174.78 1.28L174.78 1.28Q160.70 1.28 160.70-11.97L160.70-11.97L160.70-11.97Q160.70-21.38 165.89-27.46L165.89-27.46L165.89-27.46Q171.39-33.92 180.93-33.92L180.93-33.92L180.93-33.92Q187.84-33.92 191.36-30.72L191.36-30.72L191.36-30.72Q194.88-27.52 194.88-20.80L194.88-20.80L194.88-20.80Q194.88-10.56 189.38-4.61L189.38-4.61L189.38-4.61Q184 1.28 174.78 1.28ZM176.45-26.56L176.45-26.56L176.45-26.56Q175.68-24.83 175.07-22.24L175.07-22.24L175.07-22.24Q174.46-19.65 173.70-15.55L173.70-15.55L173.70-15.55Q172.93-11.46 172.93-6.40L172.93-6.40L172.93-6.40Q172.93-4.74 173.47-3.65L173.47-3.65L173.47-3.65Q174.02-2.56 175.49-2.56L175.49-2.56L175.49-2.56Q176.96-2.56 177.89-3.26L177.89-3.26L177.89-3.26Q178.82-3.97 179.52-5.63L179.52-5.63L179.52-5.63Q180.80-8.58 181.82-14.05L181.82-14.05L181.82-14.05Q182.85-19.52 182.94-21.89L182.94-21.89L182.94-21.89Q183.04-24.26 183.04-26.02L183.04-26.02L183.04-26.02Q183.04-27.78 182.53-28.93L182.53-28.93L182.53-28.93Q182.02-30.08 180.58-30.08L180.58-30.08L180.58-30.08Q179.14-30.08 178.18-29.18L178.18-29.18L178.18-29.18Q177.22-28.29 176.45-26.56ZM213.95-3.52L213.95-3.52L213.95-3.52Q211.97 1.28 205.63 1.28L205.63 1.28L205.63 1.28Q202.43 1.28 200.38-0.96L200.38-0.96L200.38-0.96Q198.72-2.82 198.72-4.93L198.72-4.93L198.72-4.93Q198.72-9.73 200.96-20.22L200.96-20.22L205.63-44.80L218.62-46.08L212.42-13.70L212.42-13.70Q211.33-8.96 211.33-7.30L211.33-7.30L211.33-7.30Q211.33-3.65 213.95-3.52ZM245.31-10.82L245.31-10.82L245.31-10.82Q246.91-9.73 246.91-7.33L246.91-7.33L246.91-7.33Q246.91-4.93 245.70-3.39L245.70-3.39L245.70-3.39Q244.48-1.86 242.50-0.83L242.50-0.83L242.50-0.83Q238.40 1.28 233.98 1.28L233.98 1.28L233.98 1.28Q229.57 1.28 226.98 0.32L226.98 0.32L226.98 0.32Q224.38-0.64 222.66-2.43L222.66-2.43L222.66-2.43Q219.26-5.82 219.26-12.03L219.26-12.03L219.26-12.03Q219.26-21.70 224.51-27.58L224.51-27.58L224.51-27.58Q230.14-33.92 239.94-33.92L239.94-33.92L239.94-33.92Q246.02-33.92 249.02-31.36L249.02-31.36L249.02-31.36Q251.26-29.44 251.26-26.30L251.26-26.30L251.26-26.30Q251.26-15.04 231.81-15.04L231.81-15.04L231.81-15.04Q231.55-13.38 231.55-11.97L231.55-11.97L231.55-11.97Q231.55-9.02 232.86-7.90L232.86-7.90L232.86-7.90Q234.18-6.78 236.61-6.78L236.61-6.78L236.61-6.78Q239.04-6.78 241.63-7.90L241.63-7.90L241.63-7.90Q244.22-9.02 245.31-10.82ZM232.26-17.79L232.26-17.79L232.26-17.79Q236.80-17.79 239.42-20.61L239.42-20.61L239.42-20.61Q242.05-23.30 242.05-27.58L242.05-27.58L242.05-27.58Q242.05-29.06 241.50-29.86L241.50-29.86L241.50-29.86Q240.96-30.66 239.87-30.66L239.87-30.66L239.87-30.66Q238.78-30.66 237.86-30.24L237.86-30.24L237.86-30.24Q236.93-29.82 235.97-28.42L235.97-28.42L235.97-28.42Q233.60-25.22 232.26-17.79Z" fill="url(#editing-gradient-gradient)"></path></g></g><style>text {
  font-size: 64px;
  font-family: Arial Black;
  dominant-baseline: central;
  text-anchor: middle;
}</style></svg>